<svg width="597" height="490" viewBox="0 0 597 490" fill="none" xmlns="http://www.w3.org/2000/svg">
<path opacity="0.07" fill-rule="evenodd" clip-rule="evenodd" d="M589.154 338.089C585.383 358.652 579.201 378.681 570.722 397.754C564.238 412.188 555.807 425.648 545.674 437.754C537.649 447.405 528.065 455.605 517.317 462.001C507.874 467.5 497.732 471.681 487.165 474.412C477.609 476.96 467.826 478.535 457.957 479.089C448.505 479.089 439.904 479.662 431.68 479.662C412.237 480.416 392.879 476.827 374.967 469.161C353.51 459.93 336.269 442.889 326.666 421.429C327.328 420.188 328.084 418.947 328.651 417.706L326.571 421.238C324.634 417.047 323.017 412.704 321.751 408.255C318.499 397.086 316.75 385.525 316.552 373.888C316.193 360.285 319.076 346.795 324.964 334.557C330.362 324.018 337.64 314.567 346.421 306.681C354.947 299.149 364.493 292.877 374.778 288.066C384.06 283.522 393.701 279.789 403.607 276.897L478.28 253.89C507.818 246.091 535.069 231.255 557.773 210.645C576.261 191.428 586.016 165.328 584.712 138.57C584.92 119.811 581.385 101.215 574.314 83.8686C567.707 67.4202 557.754 52.5566 545.107 40.2417C532.12 27.7551 516.788 18.0177 500.02 11.6025C481.692 4.46187 462.192 0.900944 442.55 1.10156C429.837 0.86272 417.143 2.18009 404.741 5.01533C395.733 7.17305 386.943 10.1516 378.464 13.8937C374.853 14.6476 371.337 15.8028 367.972 17.3302C364.134 18.8004 360.505 20.7957 357.197 23.249H356.535C351.658 25.1965 346.468 26.2275 341.222 26.304H338.765C331.515 26.4091 324.312 25.044 317.592 22.2946L296.135 13.5118C287.222 9.78845 278.025 6.81977 268.629 4.63365C255.273 1.76969 241.633 0.452209 227.984 0.719663C198.427 0.185094 169.144 6.45686 142.347 19.0486C117.554 31.02 94.9538 47.1628 75.5201 66.7805C69.8487 72.5084 62.8541 80.3364 54.347 90.36C44.9232 101.959 36.6808 114.503 29.7714 127.782C21.0847 144.354 14.2129 161.834 9.25999 179.905C3.43746 201.69 0.611246 224.172 0.847503 246.73C0.129181 281.565 7.36959 316.094 22.0205 347.635C35.5372 376.293 53.7137 402.47 75.8038 425.056C95.4454 445.61 118.802 462.173 144.616 473.838C170.581 484.53 198.437 489.762 226.472 489.208C243.968 489.59 261.436 487.509 278.365 483.003C291.343 479.432 303.99 474.736 316.174 468.97L333.377 460.282C362.518 479.9 396.962 489.905 431.964 488.921H455.973C462.485 488.75 468.988 488.206 475.444 487.299C481.493 486.44 487.543 485.39 493.592 484.339C500.379 483.06 507.1 481.437 513.726 479.471C522.327 476.798 531.685 473.743 542.083 469.924C550.41 466.764 559.191 464.998 568.076 464.674C572.878 464.13 577.689 465.571 581.404 468.683C584.079 471.767 586.158 475.327 587.548 479.184H597V338.089L589.154 338.089ZM302.751 452.646C292.174 461.801 279.953 468.808 266.738 473.266C253.808 477.762 240.244 480.082 226.566 480.139C208.362 480.674 190.185 478.354 172.689 473.266C157.716 468.015 144.001 459.662 132.422 448.732C120.626 437.963 110.994 424.999 104.065 410.546C96.4659 395.119 90.6906 378.843 86.8625 362.051C82.5712 343.741 79.6315 325.144 78.0717 306.395C76.3704 286.729 75.5197 267.064 75.5197 247.398C75.4913 218.673 77.325 189.967 81.002 161.481C84.159 134.98 91.5977 109.176 103.026 85.1097C113.518 63.2674 129.397 44.5279 149.152 30.695C172.509 15.9175 199.788 8.71924 227.322 10.0753C250.565 9.13947 273.667 14.0942 294.528 24.49C310.918 33.1199 325.295 45.1963 336.685 59.9071C346.922 73.0909 354.842 87.9449 360.126 103.821C364.522 116.861 367.868 130.235 370.146 143.82H377.329L377.991 29.2631C383.048 25.7406 388.322 22.5521 393.776 19.7167C409.146 12.681 425.876 9.22531 442.739 9.59748C454.327 9.74088 465.868 11.1824 477.145 13.8935C489.612 16.6429 501.484 21.6164 512.213 28.5946C523.158 35.6019 532.365 45.0336 539.152 56.1839C546.751 69.2624 550.456 84.2788 549.833 99.4291C550.23 111.877 547.328 124.202 541.42 135.132C535.928 144.851 528.527 153.328 519.68 160.049C510.492 166.989 500.454 172.707 489.811 177.041C478.752 181.623 467.693 185.729 456.444 189.165L377.707 213.986C369.484 216.659 358.803 220.191 346.515 224.487C333.405 229.193 321.041 235.818 309.84 244.152C297.43 253.517 287.042 265.345 279.31 278.901C275.444 285.784 272.551 293.173 270.708 300.858H184.882V310.404H268.628C267.277 318.223 266.587 326.146 266.549 334.079C266.502 354.222 270.396 374.164 277.986 392.79C285.246 410.622 295.908 426.842 309.368 440.522L310.596 444.531C308.177 447.424 305.558 450.135 302.751 452.645L302.751 452.646Z" fill="#B0A498"/>
</svg>
