<svg xmlns="http://www.w3.org/2000/svg" width="28" height="39" viewBox="0 0 28 39">
  <defs>
    <style>
      .cls-1 {
        fill: #5c4b5c;
        fill-rule: evenodd;
      }
    </style>
  </defs>
  <path id="ico-calc" class="cls-1" d="M681.816,877H660.184A3.17,3.17,0,0,0,657,880.148v32.7A3.171,3.171,0,0,0,660.184,916h21.632A3.171,3.171,0,0,0,685,912.852v-32.7A3.17,3.17,0,0,0,681.816,877Zm1.91,35.852a1.9,1.9,0,0,1-1.91,1.889H660.184a1.9,1.9,0,0,1-1.911-1.889v-32.7a1.9,1.9,0,0,1,1.911-1.889h21.632a1.9,1.9,0,0,1,1.91,1.889v32.7ZM660.82,889.583h20.36v-8.806H660.82v8.806Zm1.274-7.555h17.812v6.288H662.094v-6.288Zm3.82,10.065h-5.086v5.029h5.086v-5.029Zm-1.273,3.778h-2.547v-2.519h2.547v2.519Zm3.812,1.259h5.086V892.1h-5.086v5.029h0Zm1.273-3.778h2.547v2.519h-2.547v-2.519h0Zm6.36,3.778h5.086V892.1h-5.086v5.029Zm1.273-3.778h2.547v2.519h-2.547v-2.519Zm-11.445,6.3h-5.086v5.028h5.086v-5.028Zm-1.273,3.769h-2.547V900.9h2.547v2.518Zm3.812,1.259h5.086v-5.028h-5.086v5.028h0Zm1.273-3.769h2.547v2.518h-2.547v-2.518h0Zm6.36,11.316h5.086V899.648h-5.086v12.575Zm1.273-11.316h2.547v10.065h-2.547V900.907ZM660.82,912.223h12.727v-5.029H660.82v5.029Zm1.274-3.77h10.179v2.519H662.094v-2.519Z" transform="translate(-657 -877)"/>
</svg>
