<svg xmlns="http://www.w3.org/2000/svg" width="28" height="38" viewBox="0 0 28 38">
  <defs>
    <style>
      .cls-1 {
        fill: #5c4b5c;
        fill-rule: evenodd;
      }
    </style>
  </defs>
  <path id="ico-idea" class="cls-1" d="M1049.26,877.012a13.861,13.861,0,0,0-13.26,13.3,13.4,13.4,0,0,0,4.78,10.357,7.4,7.4,0,0,1,2.81,5.638,1.737,1.737,0,0,0-.64,1.348,1.79,1.79,0,0,0,.89,1.532,2.06,2.06,0,0,0-.25.919,1.843,1.843,0,0,0,1.91,1.839h0.7a3.845,3.845,0,0,0,7.53,0h0.7a1.843,1.843,0,0,0,1.91-1.839,2.631,2.631,0,0,0-.25-0.919,1.871,1.871,0,0,0,.89-1.532,1.737,1.737,0,0,0-.64-1.348,7.77,7.77,0,0,1,2.81-5.638,13.284,13.284,0,0,0,4.84-10.174C1064.06,882.834,1057.36,876.583,1049.26,877.012Zm0.77,36.77a2.592,2.592,0,0,1-2.49-1.838h4.91A2.446,2.446,0,0,1,1050.03,913.782Zm4.46-3.064h-8.93a0.613,0.613,0,1,1,0-1.226h8.93A0.614,0.614,0,1,1,1054.49,910.718Zm0.64-2.451h-10.2a0.614,0.614,0,1,1,0-1.226h10.2A0.614,0.614,0,1,1,1055.13,908.267Zm3.25-8.519a8.949,8.949,0,0,0-3.25,6.067h-10.2a8.8,8.8,0,0,0-3.26-6.067,12.4,12.4,0,0,1-4.4-9.437,12.587,12.587,0,0,1,12.06-12.073c7.33-.368,13.45,5.27,13.45,12.256A11.994,11.994,0,0,1,1058.38,899.748Zm-19.19-9.254h1.27a9.378,9.378,0,0,1,9.57-9.192v-1.226A10.623,10.623,0,0,0,1039.19,890.494Z" transform="translate(-1036 -877)"/>
</svg>
