<svg xmlns="http://www.w3.org/2000/svg" width="39" height="39" viewBox="0 0 39 39">
  <defs>
    <style>
      .cls-1 {
        fill: #675767;
        fill-rule: evenodd;
      }
    </style>
  </defs>
  <path id="ico-book" class="cls-1" d="M858.349,884.547h-7.671v10.064h7.671V884.547Zm-1.28,8.8h-5.111v-7.546h5.111v7.546Zm3.831-8.8h8.951v1.259H860.9v-1.259Zm0,4.406h8.951v1.259H860.9v-1.259Zm0,4.4h8.951v1.259H860.9v-1.259Zm-10.23,4.407h19.181v1.259H850.67v-1.259Zm0,4.4h14.709v1.259H850.67v-1.259Zm0,7.554h8.951v1.26H850.67v-1.26Zm30.394-15.438a3.269,3.269,0,0,0-4.518,0l-2.856,2.809V880.777h-3.839V877H843v35.223h3.839V916H873.69V905.981l7.374-7.255A3.115,3.115,0,0,0,881.064,894.274Zm-34.225,16.7H844.28V878.259h24.3v2.518h-21.74v30.195Zm25.571,3.769H848.119V882.029H872.41v16.314l-10.472,10.3-1.131,5.558,5.649-1.113,5.946-5.857v7.508h0.008Zm-8.974-5.789,1.811-1.781,2.715,2.672-1.818,1.781Zm1.413,3.171-2.411.476,0.483-2.372Zm4.01-3.171-2.715-2.671L876.99,895.6l2.716,2.671Zm11.674-11.646-2.544-2.5a1.98,1.98,0,0,1,2.169.361A1.848,1.848,0,0,1,880.533,897.306Zm-7.153,5.42-0.9-.89,4.519-4.446,0.9,0.89Z" transform="translate(-843 -877)"/>
</svg>
