<svg width="22" height="34" viewBox="0 0 22 34" fill="none" xmlns="http://www.w3.org/2000/svg">
<path opacity="0.7" fill-rule="evenodd" clip-rule="evenodd" d="M8.6696 33.5155C8.23287 33.5155 7.94144 33.2296 7.94144 32.8006V29.441C7.50402 29.1552 7.06725 28.798 6.70283 28.3689C6.55679 28.2977 6.48381 28.2257 6.41145 28.1543L0.728841 22.5794C0.291421 22.0783 0 21.4353 0 20.7924C0 20.0774 0.218387 19.5057 0.728841 19.0053C1.67608 18.0758 3.35142 18.0758 4.29864 19.0053L5.68261 20.3633V6.71056C5.68261 5.35196 6.84823 4.20856 8.23288 4.20856C9.61684 4.20856 10.7824 5.35196 10.7824 6.71056V8.7122C11.1468 8.56889 11.5113 8.49764 11.8757 8.49764C13.0412 8.49764 13.9878 9.21257 14.2792 10.2134C14.6436 10.0701 15.0811 9.92685 15.5178 9.92685C16.6834 9.92685 17.6306 10.6418 17.922 11.6426C18.2864 11.5 18.7239 11.3568 19.1606 11.3568C20.5453 11.3568 21.7109 12.5001 21.7832 13.8587V25.6523C21.7832 27.2255 20.909 28.6548 19.598 29.3697V32.8006C19.598 33.2296 19.3067 33.5155 18.8692 33.5155L8.6696 33.5155ZM9.32544 32.0863H18.0681V29.9414H17.3393H10.0542H9.32545L9.32544 32.0863ZM1.74834 19.9341C1.60295 20.1486 1.45691 20.4345 1.45691 20.7203C1.45691 21.0069 1.52995 21.2927 1.74834 21.5072L7.43092 27.0822C7.50396 27.1535 7.50396 27.2254 7.57695 27.2254C7.57695 27.2254 7.65 27.2968 7.72235 27.368C8.30511 28.083 9.107 28.5121 10.0542 28.5121H17.3392C18.9422 28.5121 20.2532 27.2254 20.2532 25.6523H20.3262V13.8587C20.3262 13.2863 19.8164 12.7866 19.2336 12.7866C18.6508 12.7866 18.1404 13.2863 18.1404 13.8587V18.5049V19.2198C18.1404 19.6482 17.8496 19.9341 17.4122 19.9341C16.9747 19.9341 16.6834 19.6482 16.6834 19.2198V18.5049V13.8587V13.5015V12.4288C16.6834 11.8571 16.1736 11.3568 15.5908 11.3568C15.008 11.3568 14.4982 11.8571 14.4982 12.4288V18.5049V19.2198C14.4982 19.6482 14.2068 19.9341 13.7694 19.9341C13.3326 19.9341 13.0412 19.6482 13.0412 19.2198V18.5049V12.4288V11.3568V10.9996C13.0412 10.4272 12.5307 9.92683 11.948 9.92683C11.3652 9.92683 10.8554 10.4272 10.8554 10.9996V11.3568V18.5049V19.2198C10.8554 19.6482 10.564 19.9341 10.1265 19.9341C9.68977 19.9341 9.39838 19.6482 9.39838 19.2198V18.5049V11.3568V10.9996V9.92683V6.71055C9.39838 6.13885 8.88861 5.63849 8.30511 5.63849C7.72235 5.63849 7.21257 6.13885 7.21257 6.71055V22.007C7.21257 22.2935 7.06718 22.5073 6.7758 22.6507C6.48373 22.7932 6.1923 22.7219 5.97396 22.5073L3.35133 19.9341C3.13299 19.7915 2.84156 19.6482 2.55018 19.6482C2.25875 19.6482 1.96736 19.7195 1.74834 19.9341V19.9341ZM4.80843 4.63762L3.78888 3.63691C3.49681 3.35102 3.49681 2.92191 3.78888 2.63611C4.08026 2.35022 4.51704 2.35022 4.80843 2.63611L5.82867 3.63691C6.1201 3.92271 6.1201 4.35182 5.82867 4.63762C5.68263 4.7802 5.46424 4.85217 5.31821 4.85217C5.09986 4.85217 4.95447 4.7802 4.80843 4.63762ZM10.4911 4.13731C10.1997 3.85151 10.1997 3.42239 10.4911 3.1365L11.5113 2.06445C11.8027 1.77865 12.2394 1.77865 12.5308 2.06445C12.8222 2.35026 12.8222 2.77873 12.5308 3.06526L11.5113 4.13731C11.3653 4.28053 11.1469 4.35187 11.0016 4.35187C10.7825 4.35187 10.6371 4.28053 10.4911 4.13731ZM7.13963 2.77866V1.34943C7.13963 0.920301 7.43102 0.634399 7.86849 0.634399C8.30522 0.634399 8.59666 0.920301 8.59666 1.34943V2.77866C8.59666 3.20779 8.30522 3.49432 7.86849 3.49432C7.43101 3.49432 7.13963 3.20779 7.13963 2.77866Z" fill="white"/>
</svg>
