<svg xmlns="http://www.w3.org/2000/svg" width="74.94" height="74.22" viewBox="0 0 74.94 74.22">
  <defs>
    <style>
      .cls-1 {
        fill: #5c4b5c;
        fill-rule: evenodd;
        opacity: 0.9;
      }
    </style>
  </defs>
  <path id="Forme_24" data-name="Forme 24" class="cls-1" d="M1091.59,2444.13h-15.62a5.985,5.985,0,0,1-5.91-6.05v-26.99a5.982,5.982,0,0,1,5.91-6.04h15.62a5.982,5.982,0,0,1,5.91,6.04v26.99A5.985,5.985,0,0,1,1091.59,2444.13Zm-15.62-36.67a3.594,3.594,0,0,0-3.55,3.63v26.99a3.594,3.594,0,0,0,3.55,3.63h15.62a3.592,3.592,0,0,0,3.54-3.63v-26.99a3.592,3.592,0,0,0-3.54-3.63h-15.62Zm20.35,5.25a1.172,1.172,0,0,1-.97-0.52,1.23,1.23,0,0,1,.29-1.68c12.65-9,14.46-20.41,15.78-28.75,1.01-6.36,1.88-11.86,7.88-11.86a6.173,6.173,0,0,1,5.33,2.65c4.08,5.71.74,19.55-.56,24.26h15.16a1.21,1.21,0,0,1,0,2.42h-16.75a1.189,1.189,0,0,1-.96-0.49,1.229,1.229,0,0,1-.17-1.08c1.55-4.96,4.81-18.86,1.37-23.68a3.9,3.9,0,0,0-3.42-1.66c-3.83,0-4.47,3.02-5.55,9.83-1.39,8.77-3.3,20.77-16.76,30.35A1.179,1.179,0,0,1,1096.32,2412.71Zm36.76,31.42h-20.24c-12.25,0-17.33-8.7-17.54-9.07a1.221,1.221,0,0,1,.42-1.65,1.174,1.174,0,0,1,1.62.43c0.19,0.32,4.66,7.87,15.5,7.87h20.24A1.21,1.21,0,0,1,1133.08,2444.13Zm5.98-34.3a1.177,1.177,0,0,1-1.16-.99,1.208,1.208,0,0,1,.95-1.41c0.41-.08,4.06-0.9,3.77-4.4a3.821,3.821,0,0,0-3.59-3.8,1.2,1.2,0,0,1-1.12-1.26,1.167,1.167,0,0,1,1.22-1.16,6.212,6.212,0,0,1,5.85,6.02c0.38,4.61-3.56,6.59-5.71,6.99A1.477,1.477,0,0,1,1139.06,2409.83Zm-1.34,11.71a1.207,1.207,0,0,1-.07-2.41,4.352,4.352,0,0,0,4.02-4.41c0.26-4.18-2.9-4.88-3.04-4.91a1.212,1.212,0,0,1-.92-1.43,1.184,1.184,0,0,1,1.4-.94c1.83,0.38,5.23,2.43,4.92,7.43a6.722,6.722,0,0,1-6.26,6.67h-0.05Zm-1.42,11.82a1.191,1.191,0,0,1-1.18-1.16,1.2,1.2,0,0,1,1.14-1.25,4.4,4.4,0,0,0,4.15-4.4c0.33-4.23-2.86-5-3-5.03a1.217,1.217,0,0,1-.9-1.45,1.186,1.186,0,0,1,1.41-.92c1.85,0.42,5.24,2.55,4.85,7.59a6.794,6.794,0,0,1-6.43,6.63A0.048,0.048,0,0,0,1136.3,2433.36Zm-2.82,10.77a1.21,1.21,0,0,1,0-2.42,4.567,4.567,0,0,0,4.14-2.97,4.252,4.252,0,0,0-2.13-5.39,1.223,1.223,0,0,1-.57-1.61,1.184,1.184,0,0,1,1.58-.58,6.641,6.641,0,0,1,3.34,8.42A6.921,6.921,0,0,1,1133.48,2444.13Z" transform="translate(-1070.06 -2369.91)"/>
</svg>
