<svg width="13" height="9" viewBox="0 0 13 9" fill="none" xmlns="http://www.w3.org/2000/svg">
<path d="M12.6928 3.8709L8.41328 0.273574C8.01461 -0.0781842 7.3513 -0.0930133 6.93212 0.242334C6.5125 0.577605 6.49575 1.13511 6.89426 1.48742C6.90625 1.49794 6.91869 1.50814 6.93124 1.51866L9.46099 3.64144H1.0477C0.46917 3.64144 0 4.03567 0 4.5222C0 5.00796 0.46917 5.4025 1.0477 5.4025H9.43759L6.93124 7.51241C6.53273 7.86472 6.54949 8.42261 6.9691 8.75757C7.37369 9.0809 8.00883 9.0809 8.41328 8.75702L12.6928 5.16024C12.8899 4.99508 13.0004 4.77064 12.9996 4.53735C13.0001 4.53005 13.0001 4.5222 12.9996 4.51577C13.0001 4.50839 13.0001 4.5011 12.9996 4.49379C12.9994 4.2601 12.8892 4.03598 12.6928 3.8709Z" fill="#E3D3C3"/>
</svg>
