<svg xmlns="http://www.w3.org/2000/svg" width="42" height="32" viewBox="0 0 42 32">
  <defs>
    <style>
      .cls-1 {
        fill: #5c4b5c;
        fill-rule: evenodd;
      }
    </style>
  </defs>
  <path id="ico-bubble" class="cls-1" d="M1267.91,883H1238.5a2.085,2.085,0,0,0-2.1,2.068v10.341h-6.3a2.085,2.085,0,0,0-2.1,2.068v12.409a2.086,2.086,0,0,0,2.1,2.069V915l3.09-3.045h15.12a2.086,2.086,0,0,0,2.1-2.069v-2.068h8.1l5.89,5.8v-5.8h3.5a2.085,2.085,0,0,0,2.1-2.068V885.068A2.077,2.077,0,0,0,1267.91,883ZM1249,909.886a0.693,0.693,0,0,1-.7.692h-15.69l-1.1,1.092v-1.092h-1.41a0.693,0.693,0,0,1-.7-0.692V897.477a0.693,0.693,0,0,1,.7-0.692h6.3v8.965a2.085,2.085,0,0,0,2.1,2.068H1249v2.068Zm19.61-4.136a0.693,0.693,0,0,1-.7.692H1263v3.851l-3.91-3.851H1238.5a0.693,0.693,0,0,1-.7-0.692V885.068a0.694,0.694,0,0,1,.7-0.692h29.41a0.694,0.694,0,0,1,.7.692V905.75Zm-25.2-16.545h19.6v1.376h-19.6v-1.376Zm-2.1,5.512h23.8v1.376h-23.8v-1.376Zm2.1,5.521h10.5v1.376h-10.5v-1.376Zm14.7,0h7v1.376h-7v-1.376Z" transform="translate(-1228 -883)"/>
</svg>
