<svg xmlns="http://www.w3.org/2000/svg" width="79.75" height="77.12" viewBox="0 0 79.75 77.12">
  <defs>
    <style>
      .cls-1 {
        fill: #5c4b5c;
        fill-rule: evenodd;
        opacity: 0.9;
      }
    </style>
  </defs>
  <path id="Forme_22" data-name="Forme 22" class="cls-1" d="M583.546,2430.81h12.841v-12.96H583.53v12.96h0.016Zm2.558-10.36h7.708v7.77H586.1v-7.77Zm-48.822,10.36h12.857v-12.96H537.282v12.96Zm2.575-10.36h7.708v7.77h-7.708v-7.77Zm66.891-35.05v-3.23l-4.27-14.24H531.191l-4.144,13.86L527,2385.4a11.017,11.017,0,0,0,5.212,9.37v47.71H527v2.59h79.669v-2.59h-5.212v-47.67A11,11,0,0,0,606.748,2385.4Zm-10.926,8.43a8.406,8.406,0,0,1-8.368-8.43v-1.93h16.719v1.93A8.4,8.4,0,0,1,595.822,2393.83Zm-46.954-10.36h16.719v1.93a8.368,8.368,0,1,1-16.735,0v-1.93h0.016Zm19.293,0H584.88v1.93a8.368,8.368,0,1,1-16.735,0v-1.93h0.016Zm-35.07-12.96h67.487l3.14,10.36h-73.7Zm-3.516,14.89v-1.93h16.718v1.93A8.359,8.359,0,1,1,529.575,2385.4Zm25.7,57.08v-36.27H578.4v36.27H555.273Zm43.61,0H580.971v-38.87H552.7v38.87H534.786v-46.53a10.809,10.809,0,0,0,12.8-5.38,10.878,10.878,0,0,0,19.293.02,10.892,10.892,0,0,0,19.309-.02,10.856,10.856,0,0,0,12.731,5.41v46.5h-0.031Z" transform="translate(-527 -2367.94)"/>
</svg>
