<svg xmlns="http://www.w3.org/2000/svg" width="140.312" height="162" viewBox="0 0 70.156 81">
  <defs>
    <style>
      .cls-1 {
        fill: #5c4b5c;
        fill-rule: evenodd;
        opacity: 0.9;
      }
    </style>
  </defs>
  <path id="Forme_23" data-name="Forme 23" class="cls-1" d="M844.212,2421.65a5.569,5.569,0,0,1-5.575,5.6h-1.723V2446h-2.737v-21.4h4.46a2.946,2.946,0,0,0,2.94-2.95V2397.1a2.954,2.954,0,0,0-2.94-2.96H819.986a2.954,2.954,0,0,0-2.94,2.96v24.55a2.946,2.946,0,0,0,2.94,2.95h4.156V2446h-2.737v-18.65h-1.52a5.568,5.568,0,0,1-5.576-5.6V2397.1a5.57,5.57,0,0,1,5.576-5.6h18.651a5.568,5.568,0,0,1,5.575,5.6v24.55h0.1Zm-25.747-45.84a10.745,10.745,0,1,1,10.745,10.8A10.779,10.779,0,0,1,818.465,2375.81Zm2.737,0a8.11,8.11,0,1,0,8.11-8.15A8.156,8.156,0,0,0,821.2,2375.81ZM810.863,2446H813.6v-15.59h1.216v-2.75h-3.953V2446Zm-14.09-20.58v-20.78a2.25,2.25,0,0,1,2.23-2.24h12.265v-2.75H799.105a4.986,4.986,0,0,0-4.967,4.99v20.78a4.986,4.986,0,0,0,4.967,4.99h1.013V2446h2.737v-18.34h-3.75A2.279,2.279,0,0,1,796.773,2425.42Zm0.811-38.81a9.326,9.326,0,1,1,9.326,9.37A9.328,9.328,0,0,1,797.584,2386.61Zm2.737,0a6.589,6.589,0,1,0,6.589-6.63A6.6,6.6,0,0,0,800.321,2386.61Zm43.283,43.8h1.217V2446h2.737v-18.34H843.6v2.75Zm15.712-30.76H847.152v2.75h12.265a2.249,2.249,0,0,1,2.23,2.24v20.78a2.256,2.256,0,0,1-2.23,2.24h-3.852V2446H858.3v-15.59h1.014a4.986,4.986,0,0,0,4.967-4.99v-20.78A4.986,4.986,0,0,0,859.316,2399.65Zm-17.131-13.04a9.326,9.326,0,1,1,9.326,9.37A9.328,9.328,0,0,1,842.185,2386.61Zm2.636,0a6.589,6.589,0,1,0,6.588-6.63A6.595,6.595,0,0,0,844.821,2386.61Z" transform="translate(-794.125 -2365)"/>
</svg>
