<svg width="19" height="20" viewBox="0 0 19 20" fill="none" xmlns="http://www.w3.org/2000/svg">
<path fill-rule="evenodd" clip-rule="evenodd" d="M18.6807 17.8375L13.7622 12.9279C14.7169 11.6514 15.2932 10.0754 15.2932 8.36641C15.2932 4.15645 11.8613 0.734375 7.64654 0.734375C3.43181 0.734375 0 4.15645 0 8.36641C0 12.5722 3.4318 15.9984 7.64654 15.9984C9.36249 15.9984 10.9409 15.4247 12.2182 14.4698L17.1366 19.3793C17.5153 19.7559 18.3366 19.7259 18.6807 19.3793C19.1064 18.951 19.1064 18.2613 18.6807 17.8375H18.6807ZM1.09101 8.36641C1.09101 5.36002 3.78643 1.82643 7.64656 1.82643C11.5376 1.82643 14.2021 4.84046 14.2021 8.36641C14.2021 11.3731 11.2905 14.9067 7.64656 14.9067C3.87577 14.9067 1.09101 11.3731 1.09101 8.36641Z" fill="#F2EAE2"/>
</svg>
