<svg width="21" height="22" viewBox="0 0 21 22" fill="none" xmlns="http://www.w3.org/2000/svg">
<path opacity="0.7" d="M5.95132 10.3106C5.95132 10.8996 6.18408 11.4262 6.54976 11.8143C6.92211 12.1952 7.43421 12.4379 7.99276 12.4379C8.55127 12.4379 9.0634 12.1952 9.42923 11.8143C9.80158 11.4262 10.0277 10.8997 10.0277 10.3106V8.1903H5.95128L5.95132 10.3106ZM12.0429 17.6415C12.3021 17.6415 12.5148 17.8634 12.5148 18.1335C12.5148 18.4036 12.3021 18.6184 12.0429 18.6184C11.7835 18.6184 11.5772 18.4036 11.5772 18.1335C11.5772 17.8634 11.7832 17.6415 12.0429 17.6415ZM7.60719 14.059H13.3926C13.6518 14.059 13.8579 14.2741 13.8579 14.5442V21.023H17.8281L17.828 13.4081H17.7947L17.7613 13.401H17.7083L17.6819 13.3942H17.6554L17.642 13.3875H17.6025L17.5761 13.3804H17.5561L17.5032 13.3668H17.4899L17.4566 13.3601L17.4233 13.353L17.3899 13.3462L17.3566 13.3394H17.3501L17.3168 13.3254L17.2901 13.3186H17.2767L17.2568 13.3119L17.2435 13.3051H17.2367L17.2102 13.298H17.2037L17.1772 13.2841H17.1708L17.1443 13.2774H17.1375L17.1242 13.2703L17.1042 13.2635L17.0709 13.2567L17.0701 13.2483L17.0367 13.2415L17.0302 13.2347L16.9969 13.228L16.9636 13.2139L16.9372 13.2001H16.9304L16.8971 13.186L16.8706 13.1722H16.8641L16.8573 13.1651L16.8375 13.1583H16.8307L16.8107 13.1443L16.7843 13.1304L16.7645 13.1236H16.7577L16.7379 13.1096H16.731L16.7246 13.1028L16.6981 13.0888H16.6916L16.6716 13.0749L16.6651 13.0682L16.6387 13.0541H16.6319L16.6054 13.0402L16.5721 13.0194L16.5457 13.0054L16.5192 12.9846H16.5127L16.4928 12.9707L16.4793 12.964L16.4595 12.9499C16.4395 12.9361 16.4261 12.9291 16.4063 12.9153L16.3929 12.9012L16.3795 12.8945L16.373 12.8877L16.353 12.8737L16.3332 12.8598H16.3197L16.2998 12.839H16.2933L16.2733 12.8182H16.2668L16.2139 12.7766L16.1939 12.7559L16.1875 12.7488L16.1675 12.735L16.161 12.7282L16.141 12.7142L16.1345 12.7074L16.1277 12.7006L16.1079 12.6866L16.1011 12.6798L16.0878 12.6658L16.0678 12.6519L16.0613 12.6448L16.0479 12.631L16.0149 12.5966L15.995 12.5826L15.9685 12.555L15.9485 12.5275H15.942L15.9156 12.4999L15.9091 12.4859L15.9023 12.4791H15.8958L15.8497 12.4311L15.8485 12.4239H15.842L15.8356 12.4099L15.8287 12.4031L15.8158 12.3896L15.8093 12.3825L15.8024 12.3757L15.7895 12.3622L15.783 12.3482L15.7761 12.3414L15.7697 12.3347L15.7632 12.3275L15.7567 12.3208L15.7499 12.314L15.7434 12.3073L15.7369 12.2932L15.7106 12.2658L15.7038 12.2518L15.6908 12.2382L15.6797 12.23V12.2229L15.6729 12.2161L15.6664 12.2022L15.6599 12.1951L15.6534 12.1884L15.6466 12.1816L15.6401 12.1676L15.6138 12.1402L15.6073 12.1263V12.1192L15.6009 12.1124L15.594 12.1057L15.5875 12.0916L15.581 12.0849L15.5742 12.0781L15.5677 12.0713L15.5612 12.0573V12.0505L15.5548 12.0434L15.5479 12.0367L15.5414 12.0228L15.535 12.0157L15.5285 12.0089V12.0022L15.5216 11.9881L15.5151 11.9813C15.5018 12.0022 15.4887 12.0231 15.4754 12.0436L15.4686 12.0507L15.4553 12.0783L15.4484 12.085L15.4351 12.1058L15.4286 12.1126C15.4087 12.1402 15.3885 12.1681 15.3686 12.1958L15.3621 12.2029L15.3488 12.2235L15.322 12.2511V12.265L15.3087 12.2788L15.3022 12.2859L15.2954 12.2927L15.2821 12.3135H15.2756L15.2688 12.3274L15.2623 12.3345L15.2558 12.3412L15.2358 12.3688H15.2293L15.2093 12.3964L15.1894 12.4172V12.424H15.1829V12.4307L15.1764 12.4378L15.1629 12.4446V12.4513H15.1564L15.1366 12.472V12.4787H15.1301L15.1236 12.4855L15.1168 12.4995L15.1103 12.5063C14.5719 13.0676 13.8267 13.414 13.0092 13.414C12.191 13.414 11.4464 13.0675 10.9077 12.5063L10.9012 12.4995L10.8947 12.4855L10.8813 12.4787L10.8683 12.4652L10.8618 12.4581L10.855 12.4513L10.842 12.4378L10.8355 12.4307L10.8287 12.424L10.8222 12.4099L10.8092 12.3964L10.8024 12.3896L10.7959 12.3825L10.7894 12.3757L10.7826 12.369L10.7761 12.3622L10.7696 12.3482L10.7631 12.3414L10.7563 12.3347L10.7498 12.3275L10.7368 12.314L10.73 12.3073L10.7235 12.2932L10.717 12.2865L10.7105 12.2793L10.7037 12.2726L10.6972 12.2658L10.6907 12.2518L10.6842 12.245L10.6774 12.2383L10.6709 12.2315V12.2244H10.6644V12.2176L10.6576 12.2038L10.6511 12.1966L10.6446 12.1899L10.6328 12.1814L10.6259 12.1674H10.6194V12.1606L10.6129 12.1539L10.6065 12.1468L10.5996 12.14L10.5931 12.1261V12.119L10.5802 12.1055L10.5733 12.0915L10.5604 12.0779L10.5535 12.0712L10.5471 12.0571V12.0504L10.5406 12.0433L10.5341 12.0365L10.5272 12.0226L10.5208 12.0155L10.5078 12.002V11.9879L10.501 11.9812C10.4876 12.002 10.4745 12.023 10.4612 12.0434L10.4547 12.0505L10.4412 12.0781L10.4347 12.0849L10.4213 12.1057L10.4148 12.1124C10.3948 12.14 10.375 12.1679 10.355 12.1956L10.3485 12.2027L10.3352 12.2234L10.3084 12.2509V12.258L10.302 12.2648L10.2951 12.2787L10.2886 12.2858L10.2818 12.2925L10.2685 12.3133H10.262L10.2552 12.3272L10.2487 12.3343L10.2419 12.3411L10.2221 12.3686H10.2153L10.1955 12.3962L10.1887 12.403L10.1754 12.417V12.4238H10.1685L10.1487 12.4444L10.1419 12.4512L10.1221 12.4718V12.4786L10.1138 12.4787L10.1073 12.4855L10.1005 12.4996L10.094 12.5063C9.5553 13.0677 8.81043 13.414 7.99255 13.414C7.17463 13.414 6.4298 13.0675 5.89107 12.5063L5.88458 12.4996L5.87127 12.4855L5.86445 12.4787L5.85796 12.472L5.85114 12.4652L5.84465 12.4581L5.83783 12.4514L5.83134 12.4446L5.82452 12.4378L5.81803 12.4307L5.81121 12.424L5.80472 12.4099L5.7979 12.4031L5.79141 12.3964L5.7846 12.3896L5.7781 12.3825L5.76447 12.369L5.75798 12.3622L5.75116 12.3482L5.74467 12.3414L5.73785 12.3347L5.73136 12.3276L5.72454 12.3208L5.71805 12.314L5.71123 12.3073L5.70474 12.2932L5.69792 12.2865L5.69143 12.2794L5.68461 12.2726L5.67812 12.2658L5.6713 12.2518L5.66481 12.245L5.65799 12.2383L5.6515 12.2315V12.2244H5.64468L5.63786 12.2176V12.2038L5.63137 12.1966L5.62455 12.1899L5.61806 12.1831L5.61125 12.1691H5.60475V12.1623L5.59794 12.1556L5.59144 12.1484L5.58463 12.1417L5.57813 12.1278L5.57132 12.1207V12.1139L5.56482 12.1072L5.55801 12.0931L5.55151 12.0864L5.5447 12.0796L5.5382 12.0728L5.53139 12.0588L5.52457 12.052V12.0449L5.51808 12.0382L5.51126 12.0243L5.50477 12.0172L5.49795 12.0104L5.49146 12.0037V11.9896L5.48464 11.9829C5.47133 12.0037 5.45818 12.0246 5.44487 12.0451L5.43838 12.0522L5.42507 12.0798H5.41825V12.0865L5.39829 12.1074V12.1141C5.37849 12.1417 5.35852 12.1696 5.33856 12.1973L5.33174 12.2044L5.31843 12.2251L5.29197 12.2526V12.2597L5.28548 12.2665L5.27201 12.2804V12.2875H5.26552V12.2942L5.25221 12.315H5.24539L5.2389 12.3289L5.22559 12.3428L5.20562 12.3703H5.19913L5.17916 12.3979L5.17267 12.4047L5.15936 12.4187L5.14573 12.4322L5.13924 12.4393L5.13242 12.4461L5.12593 12.4529L5.11911 12.4596L5.11262 12.4667L5.1058 12.4735V12.4803H5.09931L5.09249 12.487L5.086 12.5011L5.07918 12.5078L5.05272 12.5286L5.03276 12.5562H5.02627L4.99981 12.5838L4.9865 12.5978L4.97319 12.6046L4.95988 12.6254L4.94657 12.6321L4.91313 12.667H4.90631L4.893 12.681V12.6878L4.8732 12.7018L4.86639 12.7086L4.85989 12.7154L4.83993 12.7294L4.83344 12.7362L4.81347 12.75L4.80698 12.7571L4.7802 12.7778L4.70082 12.8402L4.69433 12.8405L4.67437 12.8613L4.6544 12.8752H4.64775L4.64093 12.8819L4.62113 12.896L4.60782 12.9027L4.59451 12.9168H4.58769C4.57438 12.9307 4.55442 12.9376 4.54111 12.9515H4.53461L4.51465 12.9655L4.50816 12.9723L4.48819 12.9861H4.4817L4.45524 13.0069L4.42197 13.021L4.39551 13.0418L4.36223 13.0556L4.33578 13.0697L4.32928 13.0764L4.30932 13.0903H4.29601L4.27604 13.1043L4.26274 13.1111H4.25624L4.23628 13.1251H4.22979L4.21648 13.1319H4.20966L4.18986 13.1458H4.18304L4.16973 13.1598H4.16291L4.13645 13.1666V13.1737H4.12315L4.10334 13.1876L4.07007 13.2016H4.06358L4.0303 13.2155L4.00384 13.2295H3.99703L3.97057 13.2363L3.96408 13.243L3.9308 13.2498L3.90435 13.2638L3.89623 13.264L3.86977 13.2708L3.85646 13.2779C3.83666 13.2846 3.8167 13.2917 3.79673 13.2985H3.78342L3.76362 13.3056H3.75664L3.74333 13.3124L3.71687 13.3191H3.71006L3.68327 13.3259H3.67678L3.65032 13.3399H3.64351L3.57696 13.3535L3.54368 13.3606H3.53719L3.51073 13.3673H3.49742L3.46415 13.3741L3.44434 13.3809H3.42438L3.39792 13.388H3.35783L3.33787 13.3947H3.31125L3.29128 13.4015H3.23788L3.2046 13.4086H3.16451V21.0235H7.13457V14.5443C7.13489 14.2742 7.34753 14.059 7.60706 14.059L7.60719 14.059ZM12.9201 15.0362H8.07923V21.0227H12.9201V15.0362ZM21 7.69832V10.3106C21 11.1696 20.6608 11.9388 20.1222 12.5071C19.7563 12.8883 19.291 13.1724 18.7656 13.3179V21.5151C18.7656 21.7852 18.5595 22 18.3002 22L13.3925 21.9998H2.69975C2.44054 21.9998 2.22759 21.785 2.22759 21.515V13.3181C1.70901 13.1727 1.24346 12.8887 0.877798 12.5073C0.332587 11.9391 0 11.1699 0 10.3109V7.71214V7.65667V7.65007H0.0068169V7.62234C0.013634 7.58767 0.0201269 7.54623 0.0332745 7.51122L2.24109 0.38121C2.28767 0.159317 2.47385 0 2.69995 0H18.2942C18.4937 0 18.68 0.131581 18.7463 0.339433L18.3005 0.492321L18.7459 0.339771L20.9606 7.51135V7.51845L20.9671 7.52521V7.53908H20.9735V7.56005H20.9804V7.58069L20.9869 7.58779V7.61553L20.9933 7.62263V7.69197L21 7.69832ZM18.0274 12.438C18.1004 12.438 18.1738 12.4309 18.2465 12.4239H18.2533C18.7251 12.3684 19.1442 12.1398 19.4569 11.814C19.8294 11.4259 20.0553 10.8994 20.0553 10.3104V8.19003H15.9793V10.3104C15.9793 10.8993 16.212 11.4259 16.5845 11.814C16.9501 12.1949 17.462 12.4376 18.0207 12.4376L18.0273 12.4378L18.0274 12.438ZM15.0414 10.3107V8.19034H10.9652V10.3107C10.9652 10.8996 11.198 11.4263 11.5637 11.8144C11.936 12.1952 12.4481 12.4379 13.0067 12.4379C13.5652 12.4379 14.0773 12.1952 14.4431 11.8144C14.8155 11.4262 15.0414 10.8996 15.0414 10.3107H15.0414ZM2.73939 12.4239H2.76601C2.83256 12.4307 2.89895 12.438 2.97215 12.438H2.97897C3.53748 12.438 4.04961 12.1953 4.41511 11.8144C4.78762 11.4263 5.01355 10.8998 5.01355 10.3107V8.19039H0.937159V10.3107C0.937159 10.8997 1.16992 11.4263 1.5356 11.8144C1.85487 12.1398 2.27399 12.3685 2.73933 12.4239L2.73939 12.4239ZM1.11024 7.21323H19.8824L17.9606 0.977288L3.0387 0.977119L1.11024 7.21323Z" fill="white"/>
</svg>
