<svg width="18" height="23" viewBox="0 0 18 23" fill="none" xmlns="http://www.w3.org/2000/svg">
<path fill-rule="evenodd" clip-rule="evenodd" d="M9.13994 0C6.73469 0 4.78984 2.11445 4.78984 4.72306V7.05779H0.951722C0.670178 7.05779 0.439941 7.30464 0.439941 7.60705V18.194C0.439941 20.308 2.05201 22.038 4.02225 22.038H14.2576C16.2278 22.038 17.8398 20.308 17.8398 18.194V7.60705C17.8398 7.30464 17.6097 7.05779 17.3282 7.05779H13.4899V4.72306C13.4899 2.11445 11.5453 0 9.13994 0ZM5.81351 4.72305C5.81351 2.71846 7.29764 1.09852 9.13994 1.09852C10.9824 1.09852 12.4664 2.71846 12.4664 4.72305V7.05779H5.8135L5.81351 4.72305ZM16.8165 8.18369V18.2209C16.8165 19.7314 15.6649 20.9672 14.2577 20.9672H4.02234C2.61503 20.9672 1.4635 19.7314 1.4635 18.2209V8.18369H4.78992V9.88587C4.78992 10.1883 5.02028 10.4351 5.30181 10.4351C5.58335 10.4351 5.81359 10.1883 5.81359 9.88587V8.18369H12.4665V9.88587C12.4665 10.1883 12.6968 10.4351 12.9782 10.4351C13.2598 10.4351 13.49 10.1883 13.49 9.88587V8.18369H16.8165Z" fill="white"/>
</svg>
