<svg width="86" height="86" viewBox="0 0 86 86" fill="none" xmlns="http://www.w3.org/2000/svg">
<path d="M54.6915 26.308L54.6975 26.3017L54.7033 26.2952C54.9528 26.0115 55.3565 25.827 55.7575 25.827C56.2058 25.827 56.62 26.0127 56.9236 26.3147C57.2138 26.6033 57.3663 27.0085 57.3663 27.4252C57.3663 27.8578 57.1895 28.2235 56.8801 28.5325L49.7774 35.2727L49.5187 35.5183L49.5098 35.5055L49.1685 35.8319L47.953 36.9946L47.8528 37.0905L47.8331 37.2277C47.7918 37.5152 47.7082 37.8112 47.5743 38.1663L47.5061 38.3473L47.6051 38.5135C48.318 39.7102 48.7173 41.0814 48.7173 42.4936C48.7173 46.8276 45.1589 50.3704 40.7971 50.3704C36.4353 50.3704 32.877 46.8276 32.877 42.4936C32.877 38.1597 36.4353 34.6169 40.7971 34.6169C42.128 34.6169 43.4191 34.9699 44.5814 35.5925L44.7413 35.6781L44.9113 35.6147C45.2593 35.4849 45.6053 35.3993 45.9028 35.357L46.0394 35.3376L46.1352 35.2383L47.2572 34.0756L47.5862 33.7347L47.1961 33.466C45.3082 32.1659 43.0787 31.4419 40.7504 31.4419C34.5932 31.4419 29.596 36.4099 29.596 42.5401C29.596 48.6703 34.5932 53.6384 40.7504 53.6384C46.9076 53.6384 51.9047 48.6703 51.9047 42.5401C51.9047 40.1731 51.128 37.8625 49.7772 35.8948L49.5242 35.5264L49.7323 35.8046C51.1777 37.7366 51.9899 40.1175 51.9899 42.5401C51.9899 48.7344 46.9355 53.7654 40.7036 53.7654C34.4717 53.7654 29.4174 48.7344 29.4174 42.5401C29.4174 36.3459 34.4717 31.3149 40.7036 31.3149C43.1408 31.3149 45.3971 32.0772 47.342 33.472L47.6249 33.6748L47.8658 33.4236L54.6915 26.308ZM47.1022 39.2006L46.8772 39.5364C46.8171 39.5837 46.779 39.6391 46.7556 39.6856C46.7512 39.6944 46.7472 39.7031 46.7435 39.7116C46.6607 39.8306 46.5524 39.969 46.4513 40.0696L46.333 40.1873V40.2354L46.3204 40.2521C46.2703 40.3185 46.2092 40.3803 46.1241 40.4649L46.1171 40.4718C46.0453 40.5432 45.955 40.6331 45.8725 40.7381C45.8189 40.7898 45.7551 40.8444 45.6792 40.9091L45.6736 40.9139C45.6178 40.9615 45.5548 41.0152 45.4938 41.0715C45.4497 41.0925 45.4165 41.1157 45.3957 41.1312C45.3485 41.1664 45.3068 41.2081 45.2866 41.2282C45.2851 41.2297 45.2838 41.2311 45.2825 41.2323C45.1895 41.3248 45.1205 41.3924 45.0166 41.4614L44.9834 41.4833L44.9781 41.4887C44.9465 41.5044 44.8797 41.54 44.815 41.6043L45.0226 41.813L44.815 41.6043C44.7748 41.6444 44.7207 41.6845 44.6481 41.731C44.6154 41.7519 44.5825 41.7718 44.5462 41.7939L44.5346 41.801C44.4956 41.8247 44.4513 41.8517 44.4088 41.8799L44.584 42.1441V42.2146L44.362 41.8799C44.3158 41.9106 44.2674 41.9352 44.1948 41.9713L44.1886 41.9744C44.1377 41.9997 44.0741 42.0313 44.0064 42.0716C43.9996 42.0738 43.9934 42.0761 43.9878 42.0782C43.9708 42.0845 43.9547 42.0915 43.9419 42.0975L43.8966 42.1125C43.8153 42.1394 43.7477 42.1663 43.6903 42.1892L43.6875 42.1903C43.6399 42.2092 43.5992 42.2253 43.555 42.2409C43.5213 42.2476 43.4936 42.2567 43.4735 42.2642C43.451 42.2726 43.4302 42.2821 43.4162 42.2889L43.4118 42.29C43.2378 42.3332 43.1007 42.3767 42.9765 42.4176H42.9001L42.8156 42.4596C42.7914 42.4717 42.7576 42.4853 42.7198 42.4956C42.6818 42.5059 42.6476 42.5106 42.6204 42.5106H42.6201H42.6199H42.6196H42.6193H42.6191H42.6188H42.6185H42.6182H42.618H42.6177H42.6174H42.6171H42.6169H42.6166H42.6163H42.616H42.6158H42.6155H42.6152H42.6149H42.6147H42.6144H42.6141H42.6138H42.6136H42.6133H42.613H42.6127H42.6125H42.6122H42.6119H42.6117H42.6114H42.6111H42.6108H42.6106H42.6103H42.61H42.6097H42.6095H42.6092H42.6089H42.6086H42.6084H42.6081H42.6078H42.6075H42.6073H42.607H42.6067H42.6064H42.6062H42.6059H42.6056H42.6054H42.6051H42.6048H42.6045H42.6043H42.604H42.6037H42.6034H42.6032H42.6029H42.6026H42.6023H42.6021H42.6018H42.6015H42.6012H42.601H42.6007H42.6004H42.6001H42.5999H42.5996H42.5993H42.5991H42.5988H42.5985H42.5982H42.598H42.5977H42.5974H42.5971H42.5969H42.5966H42.5963H42.596H42.5958H42.5955H42.5952H42.5949H42.5947H42.5944H42.5941H42.5938H42.5936H42.5933H42.593H42.5928H42.5925H42.5922H42.5919H42.5917H42.5914H42.5911H42.5908H42.5906H42.5903H42.59H42.5897H42.5895H42.5892H42.5889H42.5886H42.5884H42.5881H42.5878H42.5875H42.5873H42.587H42.5867H42.5865H42.5862H42.5859H42.5856H42.5854H42.5851H42.5848H42.5845H42.5843H42.584H42.5837H42.5834H42.5832H42.5829H42.5826H42.5823H42.5821H42.5818H42.5815H42.5812H42.581H42.5807H42.5804H42.5802H42.5799H42.5796H42.5793H42.5791H42.5788H42.5785H42.5782H42.578H42.5777H42.5774H42.5771H42.5769H42.5766H42.5763H42.576H42.5758H42.5755H42.5752H42.5749H42.5747H42.5744H42.5741H42.5739H42.5736H42.5733H42.573H42.5728H42.5725H42.5722H42.5719H42.5717H42.5714H42.5711H42.5708H42.5706H42.5703H42.57H42.5697H42.5695H42.5692H42.5689H42.5686H42.5684H42.5681H42.5678H42.5675H42.5673H42.567H42.5667H42.5665H42.5662H42.5659H42.5656H42.5654H42.5651H42.5648H42.5645H42.5643H42.564H42.5637H42.5634H42.5632H42.5629H42.5626H42.5623H42.5621H42.5618H42.5615H42.5612H42.561H42.5607H42.5604H42.5602H42.5599H42.5596H42.5593H42.5591H42.5588H42.5585H42.5582H42.558H42.5577H42.5574H42.5571H42.5569H42.5566H42.5563H42.556H42.5558H42.5555H42.5552H42.5549H42.5547H42.5544H42.5541H42.5539H42.5536H42.5533H42.553H42.5528H42.5525H42.5522H42.5519H42.5517H42.5514H42.5511H42.5508H42.5506H42.5503H42.55H42.5497H42.5495H42.5492H42.5489H42.5486H42.5484H42.5481H42.5478H42.5476H42.5473H42.547H42.5467H42.5465H42.5462H42.5459H42.5456H42.5454H42.5451H42.5448H42.5445H42.5443H42.544H42.5437H42.5434H42.5432H42.5429H42.5426H42.5423H42.5421H42.5418H42.5415H42.5413H42.541H42.5407H42.5404H42.5402H42.5399H42.5396H42.5393H42.5391H42.5388H42.5385H42.5382H42.538H42.5377H42.5374H42.5371H42.5369H42.5366H42.5363H42.536H42.5358H42.5355H42.5352H42.535H42.5347H42.5344H42.5341H42.5339H42.5336H42.5333H42.533H42.5328H42.5325H42.5322H42.5319H42.5317H42.5314H42.5311H42.5308H42.5306H42.5303H42.53H42.5297H42.5295H42.5292H42.5289H42.5287H42.5284H42.5281H42.5278H42.5276H42.5273H42.527H42.5267H42.5265H42.5262H42.5259H42.5256H42.5254H42.5251H42.5248H42.5245H42.5243H42.524H42.5237H42.5234H42.5232H42.5229H42.5226H42.5224H42.5221H42.5218H42.5215H42.5213H42.521H42.5207H42.5204H42.5202H42.5199H42.5196H42.5193H42.5191H42.5188H42.5185H42.5182H42.518H42.5177H42.5174H42.5171H42.5169H42.5166H42.5163H42.5161H42.5158H42.5155H42.5152H42.515H42.5147H42.5144H42.5141H42.5139H42.5136H42.5133H42.513H42.5128H42.5125H42.5122H42.5119H42.5117H42.5114H42.5111H42.5108H42.5106H42.5103H42.51H42.5098H42.5095H42.5092H42.5089H42.5087H42.5084H42.5081H42.5078H42.5076H42.5073H42.507H42.5067H42.5065H42.5062H42.5059H42.5056H42.5054H42.5051H42.5048H42.5045H42.5043H42.504H42.5037H42.5034H42.5032H42.5029H42.5026H42.5024H42.5021H42.5018H42.5015H42.5013H42.501H42.5007H42.5004H42.5002H42.4999H42.4996H42.4993H42.4991H42.4988H42.4985H42.4982H42.498H42.4977H42.4974H42.4971H42.4969H42.4966H42.4963H42.4961H42.4958H42.4955H42.4952H42.495H42.4947H42.4944H42.4941H42.4939H42.4936H42.4933H42.493H42.4928H42.4925H42.4922H42.4919H42.4917H42.4914H42.4911H42.4908H42.4906H42.4903H42.49H42.4898H42.4895H42.4892H42.4889H42.4887H42.4884H42.4881H42.4878H42.4876H42.4873H42.487H42.4867H42.4865H42.4862H42.4859H42.4856H42.4854H42.4851H42.4848H42.4845H42.4843H42.484H42.4837H42.4835H42.4832H42.4829H42.4826H42.4824H42.4821H42.4818H42.4815H42.4813H42.481H42.4807H42.4804H42.4802H42.3858L42.3099 42.5484C42.3037 42.5498 42.2929 42.5517 42.2768 42.5533C42.2411 42.5569 42.2019 42.5571 42.1529 42.5571H42.1062H42.1059H42.1056H42.1053H42.1051H42.1048H42.1045H42.1043H42.104H42.1037H42.1035H42.1032H42.1029H42.1027H42.1024H42.1022H42.1019H42.1017H42.1014H42.1011H42.1009H42.1006H42.1004H42.1001H42.0999H42.0996H42.0994H42.0991H42.0989H42.0987H42.0984H42.0982H42.0979H42.0977H42.0974H42.0972H42.097H42.0967H42.0965H42.0963H42.096H42.0958H42.0956H42.0953H42.0951H42.0949H42.0947H42.0944H42.0942H42.094H42.0938H42.0935H42.0933H42.0931H42.0929H42.0927H42.0924H42.0922H42.092H42.0918H42.0916H42.0914H42.0911H42.0909H42.0907H42.0905H42.0903H42.0901H42.0899H42.0897H42.0895H42.0893H42.0891H42.0889H42.0887H42.0885H42.0883H42.0881H42.0879H42.0877H42.0875H42.0873H42.0871H42.0869H42.0867H42.0865H42.0863H42.0861H42.086H42.0858H42.0856H42.0854H42.0852H42.085H42.0848H42.0847H42.0845H42.0843H42.0841H42.0839H42.0838H42.0836H42.0834H42.0832H42.0831H42.0829H42.0827H42.0825H42.0824H42.0822H42.082H42.0819H42.0817H42.0815H42.0814H42.0812H42.081H42.0809H42.0807H42.0805H42.0804H42.0802H42.0801H42.0799H42.0798H42.0796H42.0794H42.0793H42.0791H42.079H42.0788H42.0787H42.0785H42.0784H42.0782H42.0781H42.0779H42.0778H42.0776H42.0775H42.0773H42.0772H42.077H42.0769H42.0768H42.0766H42.0765H42.0763H42.0762H42.0761H42.0759H42.0758H42.0757H42.0755H42.0754H42.0753H42.0751H42.075H42.0749H42.0747H42.0746H42.0745H42.0743H42.0742H42.0741H42.074H42.0738H42.0737H42.0736H42.0735H42.0733H42.0732H42.0731H42.073H42.0729H42.0727H42.0726H42.0725H42.0724H42.0723H42.0722H42.072H42.0719H42.0718H42.0717H42.0716H42.0715H42.0714H42.0713H42.0711H42.071H42.0709H42.0708H42.0707H42.0706H42.0705H42.0704H42.0703H42.0702H42.0701H42.07H42.0699H42.0698H42.0697H42.0696H42.0695H42.0694H42.0693H42.0692H42.0691H42.069H42.0689H42.0688H42.0687H42.0686H42.0685H42.0684H42.0683H42.0683H42.0682H42.0681H42.068H42.0679H42.0678H42.0677H42.0676H42.0676H42.0675H42.0674H42.0673H42.0672H42.0671H42.0671H42.067H42.0669H42.0668H42.0667H42.0666H42.0666H42.0665H42.0664H42.0663H42.0663H42.0662H42.0661H42.066H42.066H42.0659H42.0658H42.0657H42.0657H42.0656H42.0655H42.0655H42.0654H42.0653H42.0652H42.0652H42.0651H42.065H42.065H42.0649H42.0648H42.0648H42.0647H42.0647H42.0646H42.0645H42.0645H42.0644H42.0643H42.0643H42.0642H42.0642H42.0641H42.064H42.064H42.0639H42.0639H42.0638H42.0638H42.0637H42.0636H42.0636H42.0635H42.0635H42.0634H42.0634H42.0633H42.0633H42.0632H42.0632H42.0631H42.0631H42.063H42.063H42.0629H42.0629H42.0628H42.0628H42.0627H42.0627H42.0626H42.0626H42.0625H42.0625H42.0624H42.0624H42.0624H42.0623H42.0623H42.0622H42.0622H42.0622H42.0621H42.0621H42.062H42.062H42.0619H42.0619H42.0619H42.0618H42.0618H42.0618H42.0617H42.0617H42.0616H42.0616H42.0616H42.0615H42.0615H42.0615H42.0614H42.0614H42.0614H42.0613H42.0613H42.0613H42.0612H42.0612H42.0612H42.0611H42.0611H42.0611H42.0611H42.061H42.061H42.061H42.0609H42.0609H42.0609H42.0609H42.0608H42.0608H42.0608H42.0608H42.0607H42.0607H42.0607H42.0607H42.0606H42.0606H42.0606H42.0606H42.0605H42.0605H42.0605H42.0605H42.0604H42.0604H42.0604H42.0604H42.0604H42.0603H42.0603H42.0603H42.0603H42.0603H42.0602H42.0602H42.0602H42.0602H42.0602H42.0602H42.0601H42.0601H42.0601H42.0601H42.0601H42.0601H42.06H42.06H42.06H42.06H42.0599H42.0599H42.0599H42.0599H42.0598H42.0598H42.0598H42.0598H42.0598H42.0597H42.0597H42.0597H42.0597H42.0597H42.0596H42.0596H42.0596H42.0596H42.0596H42.0595H42.0595H42.0595H42.0595H42.0595H42.0595H42.0594H42.0594H42.0594C42.0337 42.5571 42.011 42.5536 41.9508 42.5416L41.9442 42.5403C41.8893 42.5293 41.8029 42.5121 41.6987 42.5107C41.6433 42.4951 41.5955 42.4847 41.5615 42.4774C41.5552 42.476 41.5494 42.4748 41.5442 42.4736C41.4942 42.4625 41.4894 42.4592 41.4902 42.4596L41.4843 42.4567C41.4745 42.4497 41.4636 42.4424 41.4514 42.4351C41.4201 42.4164 41.3833 42.3996 41.3412 42.3878C41.3138 42.3802 41.2866 42.3754 41.2599 42.373L41.2468 42.3655C41.2272 42.3543 41.1979 42.3375 41.163 42.3201L41.157 42.3172C41.1473 42.3101 41.1363 42.3028 41.1242 42.2956C41.1177 42.2918 41.1111 42.288 41.1041 42.2843C41.0626 42.2488 41.0245 42.2204 40.9953 42.1986L40.9905 42.195C40.942 42.1589 40.9172 42.1396 40.8933 42.1159C40.5038 41.7284 40.3724 41.0362 40.6287 40.1194C40.8813 39.2159 41.4937 38.1814 42.4361 37.2439C42.6256 37.0554 42.7466 36.9359 42.9073 36.816L42.925 36.8028C42.9512 36.7898 43.0062 36.7613 43.0635 36.7111C43.1463 36.6497 43.2201 36.5972 43.2972 36.5425L43.2983 36.5416C43.377 36.4858 43.4591 36.4274 43.5525 36.3579C43.6615 36.2862 43.7226 36.2572 43.8221 36.2242L44.7073 35.9307C43.9753 36.2433 43.2657 36.7741 42.6177 37.4187C41.7392 38.2926 41.1639 39.2282 40.8897 40.0465C40.7529 40.4549 40.6864 40.8482 40.7051 41.1977C40.7238 41.5447 40.8296 41.8831 41.0749 42.1272C41.32 42.371 41.6592 42.4758 42.0067 42.4942C42.357 42.5129 42.7516 42.4469 43.1617 42.3109C43.9835 42.0384 44.9237 41.4664 45.8022 40.5925C46.4969 39.9014 46.9893 39.1156 47.3318 38.3855L47.3417 38.3645L47.349 38.3425C47.3636 38.2992 47.3785 38.2552 47.3936 38.2108C47.4478 38.051 47.5037 37.8864 47.5476 37.7312C47.6041 37.531 47.6504 37.3156 47.6504 37.0988C47.6504 37.0898 47.6509 37.0843 47.6513 37.0815C47.6536 37.0782 47.6588 37.0716 47.669 37.0611L49.3936 35.4383L49.394 35.4379L56.8271 28.4622L56.8272 28.4623L56.8355 28.454C57.1152 28.1758 57.2344 27.7846 57.2344 27.4252C57.2344 27.0285 57.0448 26.6588 56.8042 26.412C56.5205 26.072 56.1156 25.954 55.7575 25.954C55.3337 25.954 55.0041 26.1666 54.773 26.3964L54.7729 26.3963L54.7642 26.4055L46.1671 35.5155C46.1561 35.5261 46.1493 35.5312 46.1462 35.5334C46.1435 35.5338 46.1374 35.5345 46.1268 35.5345C45.7271 35.5345 45.2637 35.6914 44.8504 35.8704L43.8442 35.47C42.8729 35.0835 41.8404 34.8369 40.7504 34.8369C36.4632 34.8369 32.9621 38.3167 32.9621 42.5866C32.9621 46.8565 36.4632 50.3364 40.7504 50.3364C45.0375 50.3364 48.5386 46.8565 48.5386 42.5866C48.5386 41.4137 48.2928 40.2844 47.798 39.2508L47.4941 38.6159L47.1022 39.2006ZM41.2199 42.3711C41.2193 42.3711 41.2186 42.3711 41.2179 42.3711L41.2199 42.3711Z" fill="#E3D3C3" stroke="#E3D3C3" stroke-width="0.803129"/>
<path d="M39.5636 37.0791L36.4953 38.8827C36.4857 38.8831 36.4734 38.8831 36.4493 38.8831C36.436 38.8831 36.423 38.882 36.4116 38.8798C36.4026 38.8781 36.3961 38.8761 36.3919 38.8745C36.3828 38.84 36.3837 38.81 36.3888 38.7896C36.3918 38.7777 36.3959 38.7698 36.3998 38.7645C36.4033 38.7597 36.4091 38.7533 36.4206 38.7463L39.4709 36.9533C39.4856 36.9492 39.5023 36.9461 39.5202 36.9447C39.5475 36.9426 39.5712 36.9449 39.5884 36.949C39.5897 36.9493 39.5909 36.9496 39.592 36.9499C39.6014 36.9848 39.6006 37.0153 39.5954 37.0359C39.5924 37.0477 39.5883 37.0556 39.5844 37.0609C39.5809 37.0658 39.5751 37.0721 39.5636 37.0791Z" fill="#E3D3C3" stroke="#E3D3C3" stroke-width="0.803129"/>
<path d="M34.6072 41.5827L34.6072 41.5827L34.6095 41.5841L37.6936 43.3971C37.7293 43.4187 37.7435 43.4441 37.7479 43.4585C37.75 43.4656 37.7502 43.4709 37.7497 43.4751C37.7494 43.4774 37.7487 43.4809 37.7468 43.4856C37.7446 43.4879 37.7417 43.4908 37.7379 43.4941C37.7287 43.502 37.7167 43.5103 37.7031 43.5176C37.6919 43.5236 37.6815 43.5279 37.673 43.5307C37.6718 43.5303 37.6705 43.5299 37.6692 43.5294C37.6476 43.5222 37.6106 43.5098 37.5624 43.5004L34.5505 41.7298C34.5148 41.7082 34.5005 41.6828 34.4962 41.6685C34.4941 41.6614 34.4939 41.656 34.4944 41.6519C34.4948 41.6482 34.4963 41.6414 34.5024 41.6314C34.5237 41.5959 34.5496 41.581 34.5655 41.5762C34.5734 41.5739 34.5796 41.5736 34.5846 41.5742C34.5893 41.5748 34.5967 41.5765 34.6072 41.5827Z" fill="#E3D3C3" stroke="#E3D3C3" stroke-width="0.803129"/>
<path d="M36.0561 45.7492C36.0561 45.7244 36.0602 45.71 36.0627 45.7036C36.064 45.7003 36.065 45.6985 36.0655 45.6977L36.0663 45.6966L36.0676 45.6957C36.0685 45.6951 36.0706 45.6939 36.0742 45.6925C36.0812 45.6898 36.0964 45.6856 36.1221 45.6856H39.9556C39.9813 45.6856 39.9965 45.6898 40.0035 45.6925C40.0071 45.6939 40.0092 45.6951 40.0101 45.6957L40.0114 45.6966L40.0122 45.6977C40.0127 45.6985 40.0137 45.7003 40.015 45.7036C40.0175 45.71 40.0216 45.7244 40.0216 45.7492C40.0216 45.7741 40.0175 45.7884 40.015 45.7948C40.0137 45.7981 40.0127 45.7999 40.0122 45.8007L40.0114 45.8018L40.0101 45.8027C40.0092 45.8033 40.0071 45.8045 40.0035 45.8059C39.9965 45.8086 39.9813 45.8128 39.9556 45.8128H36.1221C36.0964 45.8128 36.0812 45.8086 36.0742 45.8059C36.0706 45.8045 36.0685 45.8033 36.0676 45.8027L36.0663 45.8018L36.0655 45.8007C36.065 45.7999 36.064 45.7981 36.0627 45.7948C36.0602 45.7884 36.0561 45.7741 36.0561 45.7492Z" fill="#E3D3C3" stroke="#E3D3C3" stroke-width="0.803129"/>
<path d="M42.739 45.1026L42.711 45.115C42.6997 45.1148 42.694 45.1134 42.6923 45.1129C42.6907 45.1125 42.6906 45.1123 42.6905 45.1122C42.6901 45.1119 42.6864 45.1095 42.6799 45.1018C42.6752 45.0962 42.669 45.0877 42.6618 45.0753C42.6571 45.0563 42.6585 45.037 42.6639 45.0225C42.6669 45.0144 42.6702 45.0102 42.6717 45.0086C42.6727 45.0075 42.6735 45.0069 42.6754 45.0061L42.6822 45.0034L42.6889 45.0005L46.373 43.3769C46.3959 43.369 46.4205 43.37 46.4386 43.3766C46.4473 43.3798 46.4518 43.3833 46.4535 43.3848C46.4547 43.3859 46.455 43.3864 46.4555 43.3877C46.4646 43.4105 46.4639 43.4352 46.4573 43.453C46.4544 43.4611 46.4511 43.4653 46.4496 43.4669C46.4485 43.468 46.4478 43.4686 46.4458 43.4693L46.4391 43.472L46.4324 43.475L42.739 45.1026Z" fill="#E3D3C3" stroke="#E3D3C3" stroke-width="0.803129"/>
<path d="M43.8011 47.5884L43.7961 47.5894L43.788 47.5913L40.0011 48.5102H40.0009H40.0007H40.0005H40.0002H40H39.9997H39.9995H39.9992H39.999H39.9987H39.9985H39.9982H39.998H39.9978H39.9975H39.9973H39.997H39.9968H39.9965H39.9963H39.996H39.9958H39.9955H39.9953H39.995H39.9948H39.9945H39.9943H39.994H39.9938H39.9935H39.9932H39.993H39.9927H39.9925H39.9922H39.992H39.9917H39.9915H39.9912H39.991H39.9907H39.9904H39.9902H39.9899H39.9897H39.9894H39.9892H39.9889H39.9886H39.9884H39.9881H39.9879H39.9876H39.9873H39.9871H39.9868H39.9866H39.9863H39.986H39.9858H39.9855H39.9853H39.985H39.9847H39.9845H39.9842H39.984H39.9837H39.9834H39.9832H39.9829H39.9826H39.9824H39.9821H39.9819H39.9816H39.9813H39.9811H39.9808H39.9805H39.9803H39.98H39.9797H39.9795H39.9792H39.9789H39.9787H39.9784H39.9781H39.9779H39.9776H39.9773H39.9771H39.9768H39.9765H39.9763H39.976H39.9757H39.9755H39.9752H39.9749H39.9747H39.9744H39.9741H39.9738H39.9736H39.9733H39.973H39.9728H39.9725H39.9722H39.972H39.9717H39.9714H39.9711H39.9709H39.9706H39.9703H39.9701H39.9698H39.9695H39.9693H39.969H39.9687H39.9684H39.9682H39.9679H39.9676H39.9673H39.9671H39.9668H39.9665H39.9663H39.966H39.9657H39.9654H39.9652H39.9649H39.9646H39.9644H39.9641H39.9638H39.9635H39.9633H39.963H39.9627H39.9624H39.9622H39.9619H39.9616H39.9613H39.9611H39.9608H39.9605H39.9603H39.96H39.9597H39.9594H39.9592H39.9589H39.9586H39.9583H39.9581H39.9578H39.9575H39.9572H39.957H39.9567H39.9564H39.9561H39.9559H39.9556C39.9192 48.5102 39.9033 48.4999 39.899 48.4965C39.8964 48.4945 39.8939 48.4919 39.8914 48.4877C39.8888 48.4835 39.8847 48.4752 39.8818 48.4605C39.8806 48.4549 39.8799 48.4441 39.8823 48.4304C39.8826 48.4285 39.883 48.4266 39.8834 48.4248L39.91 48.4183L43.7436 47.4882L43.7711 47.4815L43.7717 47.4813C43.7799 47.4876 43.7903 47.4974 43.8014 47.5114C43.8122 47.525 43.822 47.5404 43.83 47.5566C43.8291 47.5583 43.8281 47.5601 43.8269 47.5621C43.8211 47.5716 43.8133 47.5798 43.8062 47.585C43.8039 47.5868 43.8021 47.5879 43.8011 47.5884Z" fill="#E3D3C3" stroke="#E3D3C3" stroke-width="0.803129"/>
<circle cx="43" cy="43" r="42.5" stroke="#E3D3C3" stroke-dasharray="1 5"/>
</svg>
