<svg width="86" height="86" viewBox="0 0 86 86" fill="none" xmlns="http://www.w3.org/2000/svg">
<path d="M50.3022 32.807C50.3022 33.9457 49.3746 34.8685 48.23 34.8685H35.2913C34.1467 34.8685 33.219 33.9457 33.219 32.807C33.219 31.6684 34.1467 30.7455 35.2913 30.7455H48.23C49.3746 30.7459 50.3022 31.6688 50.3022 32.807Z" stroke="#E3D3C3" stroke-width="0.803129" stroke-miterlimit="10" stroke-linecap="round" stroke-linejoin="round"/>
<path d="M33.3264 33.4587H49.9484" stroke="#E3D3C3" stroke-width="0.803129" stroke-miterlimit="10" stroke-linecap="round" stroke-linejoin="round"/>
<path d="M50.2489 36.4261C49.5918 35.9233 49.0625 34.8685 49.0625 34.8685H34.5984C34.5984 34.8685 34.0691 35.9233 33.412 36.4261C32.7549 36.9289 33.6647 38.3368 35.9392 37.7334C38.2136 37.13 38.1631 36.6775 39.2245 36.6775C40.2859 36.6775 40.4435 37.8811 41.8304 37.8811C43.2174 37.8811 43.375 36.6775 44.4364 36.6775C45.4978 36.6775 45.4473 37.13 47.7217 37.7334C49.9962 38.3368 50.906 36.9289 50.2489 36.4261Z" stroke="#E3D3C3" stroke-width="0.803129" stroke-miterlimit="10" stroke-linecap="round" stroke-linejoin="round"/>
<path d="M34.0352 37.74C34.0352 37.74 32.973 38.1391 32.973 40.1681C32.973 42.1971 32.973 51.5504 32.973 51.5504C32.973 51.5504 33.172 53.6783 35.7589 53.6783C38.3457 53.6783 41.8305 53.6783 41.8305 53.6783H41.8058C41.8058 53.6783 45.2905 53.6783 47.8774 53.6783C50.4642 53.6783 50.6632 51.5504 50.6632 51.5504C50.6632 51.5504 50.6632 42.1971 50.6632 40.1681C50.6632 38.1391 49.601 37.74 49.601 37.74" stroke="#E3D3C3" stroke-width="0.803129" stroke-miterlimit="10" stroke-linecap="round" stroke-linejoin="round"/>
<path d="M50.6632 42.9201H45.9201C45.0262 41.6255 43.5286 40.7755 41.8304 40.7755C40.1323 40.7755 38.6351 41.6255 37.7408 42.9201H32.973V48.1659H37.5335C38.3899 49.645 39.9914 50.6434 41.8308 50.6434C43.6703 50.6434 45.2718 49.645 46.1282 48.1659H50.6636V42.9201H50.6632Z" stroke="#E3D3C3" stroke-width="0.803129" stroke-miterlimit="10" stroke-linecap="round" stroke-linejoin="round"/>
<circle cx="43" cy="43" r="42.5" stroke="#E3D3C3" stroke-dasharray="1 5"/>
</svg>
