<svg width="59" height="59" viewBox="0 0 59 59" fill="none" xmlns="http://www.w3.org/2000/svg">
<circle cx="29.5" cy="29.5" r="29.5" fill="white"/>
<path opacity="0.901961" fill-rule="evenodd" clip-rule="evenodd" d="M35.882 36.076C35.882 37.1901 34.9832 38.0524 33.9047 38.0524H33.2936V44.6648H32.3229V37.1181H33.9047C34.4799 37.1181 34.9472 36.6511 34.9472 36.076V27.4152C34.9472 26.8402 34.4799 26.3729 33.9047 26.3729H27.2899C26.7147 26.3729 26.2473 26.8402 26.2473 27.4152V36.076C26.2473 36.6511 26.7147 37.1181 27.2899 37.1181H28.7638V44.6648H27.7932V38.0884H27.254C26.1395 38.0884 25.2767 37.1901 25.2767 36.1117V27.4152C25.2767 26.3011 26.1754 25.4385 27.254 25.4385H33.8688C34.9832 25.4385 35.846 26.3371 35.846 27.4152V36.076L35.882 36.076ZM26.7507 19.9043C26.7507 17.7841 28.4763 16.095 30.5614 16.095C32.6464 16.095 34.372 17.8199 34.372 19.9043C34.372 21.9887 32.6464 23.7136 30.5614 23.7136C28.4763 23.7136 26.7507 22.0247 26.7507 19.9043ZM27.7212 19.9044C27.7212 21.4855 29.0155 22.7793 30.5973 22.7793C32.1792 22.7793 33.4733 21.4855 33.4733 19.9044C33.4733 18.3232 32.1792 17.0296 30.5973 17.0296C29.0155 17.0654 27.7212 18.3232 27.7212 19.9044ZM24.0543 44.6648H25.025V39.1666H25.4563V38.1962H24.0543V44.6648ZM19.0573 37.4056V30.0744C19.0573 29.6432 19.4168 29.2838 19.8482 29.2838H24.1981V28.3136H19.8841C18.9135 28.3136 18.1226 29.1041 18.1226 30.0744V37.4056C18.1226 38.376 18.9135 39.1666 19.8841 39.1666H20.2436V44.6648H21.2144V38.1962H19.8841C19.4168 38.1962 19.0573 37.8369 19.0573 37.4056ZM19.3449 23.7136C19.3449 21.8809 20.8188 20.4075 22.6523 20.4075C24.4858 20.4075 25.9597 21.8809 25.9597 23.7136C25.9597 25.5465 24.4858 27.0196 22.6523 27.0196C20.8188 27.0196 19.3449 25.5465 19.3449 23.7136ZM20.3156 23.7136C20.3156 25.0075 21.3581 26.0496 22.6523 26.0496C23.9465 26.0496 24.9891 25.0075 24.9891 23.7136C24.9891 22.4197 23.9465 21.3777 22.6523 21.3777C21.3581 21.3777 20.3156 22.4197 20.3156 23.7136ZM35.6663 39.1666H36.0976V44.6648H37.0683V38.1962H35.6663V39.1666ZM41.2385 28.3136H36.9244V29.2838H41.2744C41.7058 29.2838 42.0653 29.6432 42.0653 30.0744V37.4056C42.0653 37.8369 41.7058 38.1962 41.2744 38.1962H39.9084V44.6648H40.879V39.1666H41.2385C42.2092 39.1666 43 38.376 43 37.4056V30.0744C43 29.1041 42.2092 28.3136 41.2385 28.3136ZM35.163 23.7136C35.163 21.8809 36.637 20.4075 38.4705 20.4075C40.3039 20.4075 41.7778 21.8809 41.7778 23.7136C41.7778 25.5465 40.3039 27.0196 38.4705 27.0196C36.637 27.0196 35.163 25.5465 35.163 23.7136ZM36.0977 23.7137C36.0977 25.0075 37.1403 26.0496 38.4345 26.0496C39.7287 26.0496 40.7712 25.0075 40.7712 23.7137C40.7712 22.4198 39.7287 21.3778 38.4345 21.3778C37.1762 21.342 36.0977 22.4198 36.0977 23.7137Z" fill="#B0A498"/>
</svg>
