<svg width="59" height="59" viewBox="0 0 59 59" fill="none" xmlns="http://www.w3.org/2000/svg">
<circle cx="29.5" cy="29.5" r="29.5" fill="white"/>
<path fill-rule="evenodd" clip-rule="evenodd" d="M23.7347 18.9929C23.4712 18.9929 23.2574 19.2063 23.2574 19.4696V22.3898C22.4356 22.6023 21.8256 23.3532 21.8256 24.2374C21.8256 25.285 22.686 26.1446 23.7347 26.1446C24.7835 26.1446 25.6438 25.285 25.6438 24.2374C25.6438 23.355 25.0312 22.6117 24.212 22.3973V19.4696C24.212 19.2063 23.9983 18.9929 23.7347 18.9929V18.9929ZM33.2802 18.9929C33.0166 18.9929 32.8029 19.2063 32.8029 19.4696V22.3898C31.9811 22.6023 31.3711 23.3532 31.3711 24.2374C31.3711 25.285 32.2315 26.1446 33.2802 26.1446C34.3289 26.1446 35.1892 25.285 35.1892 24.2374C35.1892 23.355 34.5767 22.6117 33.7575 22.3973V19.4696C33.7575 19.2063 33.5438 18.9929 33.2802 18.9929L33.2802 18.9929ZM20.3938 20.4231C19.0762 20.4231 18 21.4984 18 22.8144V38.0567C18 39.3731 19.0762 40.448 20.3938 40.448H36.6062C37.9238 40.448 39 39.3728 39 38.0567V22.8144C39 21.4984 37.9238 20.4231 36.6062 20.4231H35.1818C34.9297 20.4197 34.6971 20.6481 34.6971 20.8998C34.6971 21.1518 34.9297 21.3802 35.1818 21.3768H36.6062C37.4105 21.3768 38.0455 22.011 38.0455 22.8144V27.0982H18.9545V22.8144C18.9545 22.011 19.5895 21.3768 20.3938 21.3768H21.8182C22.0703 21.3802 22.3029 21.1518 22.3029 20.8998C22.3029 20.6481 22.0703 20.4197 21.8182 20.4231H20.3938H20.3938ZM25.6362 20.4231C25.3727 20.4231 25.159 20.6365 25.159 20.8998C25.159 21.1634 25.3727 21.3768 25.6362 21.3768H31.3636C31.6271 21.3768 31.8408 21.1634 31.8408 20.8998C31.8408 20.6365 31.6271 20.4231 31.3636 20.4231H25.6362ZM23.7346 23.2839C24.2675 23.2839 24.6892 23.7051 24.6892 24.2375C24.6892 24.7697 24.2675 25.1912 23.7346 25.1912C23.2019 25.1912 22.7801 24.7697 22.7801 24.2375C22.7801 23.7051 23.2019 23.2839 23.7346 23.2839ZM33.2802 23.2839C33.813 23.2839 34.2347 23.7051 34.2347 24.2375C34.2347 24.7697 33.813 25.1912 33.2802 25.1912C32.7473 25.1912 32.3256 24.7697 32.3256 24.2375C32.3256 23.7051 32.7473 23.2839 33.2802 23.2839ZM18.9545 28.0517H38.0455V38.0567C38.0455 38.8601 37.4104 39.4946 36.6062 39.4946H20.3938C19.5895 39.4946 18.9545 38.8601 18.9545 38.0567V28.0517H18.9545Z" fill="#B0A498"/>
</svg>
