<svg width="86" height="86" viewBox="0 0 86 86" fill="none" xmlns="http://www.w3.org/2000/svg">
<path d="M48.2812 40.0033C47.8173 39.5225 47.1144 39.4471 46.5684 39.764L45.0151 38.1543C45.2684 37.4928 45.1627 36.7133 44.6814 36.1493L36.3397 26.3804C35.9486 25.9228 35.4083 25.6602 34.8186 25.6414C34.2272 25.6254 33.6737 25.8509 33.2563 26.2831L28.1079 31.6176C28.1077 31.6178 28.1075 31.618 28.1073 31.6182L26.6204 33.1589C26.2031 33.5915 25.9832 34.1663 26.0011 34.7775C26.0192 35.3888 26.2726 35.9484 26.7147 36.3536L36.1426 44.997C36.4974 45.3221 36.9411 45.4831 37.3839 45.4831C37.6188 45.4831 37.853 45.4362 38.074 45.346L39.6285 46.9563C39.5107 47.1748 39.4421 47.4189 39.4421 47.6759C39.4421 48.073 39.5913 48.4462 39.8621 48.7264C40.9725 49.8769 42.4488 50.5104 44.0189 50.5104C45.5891 50.5104 47.0653 49.8769 48.1752 48.7268L48.2812 48.6173C50.573 46.2424 50.573 42.3782 48.2812 40.0033ZM40.1318 46.346L38.7303 44.8942L44.5788 38.8341L45.9802 40.2863L40.1318 46.346ZM33.8025 26.849C34.0676 26.5743 34.4218 26.4285 34.7948 26.4414C35.1695 26.4535 35.5128 26.62 35.7611 26.9111L42.9442 35.3227C39.7532 35.1921 38.0534 34.3503 36.2667 33.4609C34.4862 32.5748 32.6456 31.6631 29.2927 31.5217L33.8025 26.849ZM36.6545 44.3975L27.2265 35.7542C26.9457 35.4966 26.7846 35.1414 26.7733 34.7529C26.7618 34.3649 26.9014 33.9995 27.1665 33.7247L28.5382 32.3035C32.2011 32.3292 34.0162 33.2287 35.9322 34.1824C37.8389 35.1313 39.8136 36.1099 43.6419 36.1398L44.1028 36.6796C44.4879 37.1309 44.4678 37.8176 44.0568 38.2432L38.1633 44.3498C37.7526 44.7754 37.0901 44.7965 36.6545 44.3975ZM47.7354 48.0511L47.6294 48.1605C46.665 49.1598 45.3828 49.71 44.0189 49.71C42.6551 49.71 41.3727 49.1598 40.4083 48.1605C40.2834 48.0311 40.2146 47.8592 40.2146 47.6759C40.2146 47.493 40.2834 47.3207 40.4083 47.1913L46.7994 40.5692C47.0572 40.3023 47.4768 40.3015 47.735 40.5692C49.7257 42.6322 49.7257 45.9884 47.7354 48.0511Z" fill="#F2EAE2"/>
<path d="M48.838 44.597L47.9444 43.7081C47.7283 43.4931 47.3782 43.4931 47.1621 43.7081C46.946 43.9231 46.946 44.2714 47.1621 44.4863L48.0557 45.3753C48.1638 45.4828 48.3053 45.5365 48.4468 45.5365C48.5884 45.5365 48.7299 45.4828 48.838 45.3753C49.0541 45.1603 49.0541 44.812 48.838 44.597Z" fill="#F2EAE2"/>
<path d="M46.4722 45.6977C46.3642 45.4828 46.1891 45.4828 46.0811 45.6977C45.973 45.9127 45.973 46.261 46.0811 46.476L46.5279 47.3649C46.5819 47.4724 46.6527 47.5261 46.7235 47.5261C46.7942 47.5261 46.865 47.4724 46.919 47.3649C47.0271 47.1499 47.0271 46.8016 46.919 46.5867L46.4722 45.6977Z" fill="#F2EAE2"/>
<path d="M44.4722 47.6067C44.3642 47.4993 44.1891 47.4993 44.0811 47.6067C43.973 47.7142 43.973 47.8883 44.0811 47.9958L44.5279 48.4401C44.5819 48.4939 44.6527 48.5208 44.7235 48.5208C44.7942 48.5208 44.865 48.4939 44.919 48.4401C45.0271 48.3327 45.0271 48.1586 44.919 48.0511L44.4722 47.6067Z" fill="#F2EAE2"/>
<path d="M48.5001 51.5052C48.2239 51.5052 48.0001 51.6673 48.0001 51.8675V53.1325C48.0001 53.3327 48.2239 53.4948 48.5001 53.4948C48.7762 53.4948 49.0001 53.3327 49.0001 53.1325V51.8675C49.0001 51.6673 48.7762 51.5052 48.5001 51.5052Z" fill="#F2EAE2"/>
<path d="M48.5001 55.4844C48.2239 55.4844 48.0001 55.6464 48.0001 55.8467V57.1116C48.0001 57.3118 48.2239 57.4739 48.5001 57.4739C48.7762 57.4739 49.0001 57.3118 49.0001 57.1116V55.8467C49.0001 55.6464 48.7762 55.4844 48.5001 55.4844Z" fill="#F2EAE2"/>
<circle cx="43" cy="43" r="42.5" stroke="#E3D3C3" stroke-dasharray="1 5"/>
</svg>
