<svg width="59" height="59" viewBox="0 0 59 59" fill="none" xmlns="http://www.w3.org/2000/svg">
<circle cx="29.5" cy="29.5" r="29.5" fill="white"/>
<path opacity="0.901961" fill-rule="evenodd" clip-rule="evenodd" d="M14.9821 44.3913V43.4523H16.8784V26.1846C15.7416 25.486 14.9821 24.2262 14.9821 22.7941L14.9989 21.4881L16.5071 16.4714H42.446L44 21.6255V22.7941C44 24.2369 43.2284 25.5028 42.0747 26.202V43.4523H43.9711V44.3913H14.9821ZM34.6205 29.3863V43.4524H41.1379H41.1494V26.6254C40.7895 26.7286 40.4182 26.7861 40.03 26.7861C38.5103 26.7861 37.1854 25.9268 36.5169 24.667C35.843 25.9268 34.5234 26.7861 33.0038 26.7861C31.4842 26.7861 30.1592 25.9268 29.4907 24.6724C28.8228 25.9268 27.5033 26.7861 25.9837 26.7861C24.464 26.7861 23.1391 25.9268 22.4705 24.667C21.7966 25.9268 20.4771 26.7861 18.9575 26.7861C18.5638 26.7861 18.1811 26.7232 17.8152 26.614V43.4524H24.3326V29.3863H34.6205ZM25.2699 43.4524H33.6837V30.3252H25.2699V43.4524ZM36.9799 22.7942C36.9799 24.4781 38.3446 25.8471 40.024 25.8471C41.698 25.8471 43.0633 24.4781 43.0633 22.7942V22.0956H36.9799V22.7942ZM29.9537 22.7942C29.9537 24.4781 31.3191 25.8471 32.9984 25.8471C34.6778 25.8471 36.0426 24.4781 36.0426 22.7942V22.0956H29.9592H29.9537V22.7942ZM22.9335 22.7942C22.9335 24.4781 24.2988 25.8471 25.9782 25.8471C27.6576 25.8471 29.0223 24.4781 29.0223 22.7942V22.0956H22.9389H22.9335V22.7942ZM15.9188 22.7942C15.9188 24.4781 17.2841 25.8471 18.9575 25.8471C20.6369 25.8471 22.0022 24.4781 22.0022 22.7942V22.0956H15.9188L15.9188 22.7942ZM16.0785 21.156H42.8974L41.7551 17.4045H17.1985L16.0785 21.156ZM35.5573 39.2314H35.5513V34.5403H40.2295V39.2314H35.5573ZM36.4885 38.2922H39.2927V35.4799H36.4885V38.2922ZM18.7236 39.2314V34.5403H23.4018V39.2314H18.7236ZM19.6604 38.2922H22.4652V35.4799H19.6604V38.2922Z" fill="#B0A498"/>
</svg>
